<?xml version="1.0" encoding="UTF-8"?>
<svg version="1.1" xmlns="http://www.w3.org/2000/svg" width="87" height="84">
<path d="M0 0 C0.80904785 0.35271973 1.6180957 0.70543945 2.45166016 1.06884766 C3.35142578 1.45814453 4.25119141 1.84744141 5.17822266 2.24853516 C6.10634766 2.65587891 7.03447266 3.06322266 7.99072266 3.48291016 C8.91111328 3.88251953 9.83150391 4.28212891 10.77978516 4.69384766 C12.57064145 5.47159096 14.36071239 6.25114576 16.14990234 7.03271484 C19.29897541 8.40583542 22.45628355 9.75883836 25.61572266 11.10791016 C26.249668 47.95964067 26.249668 47.95964067 11.82275391 63.13134766 C7.1333847 67.33103052 2.12571952 70.17828169 -3.75927734 72.35791016 C-12.1474946 71.77941241 -19.99485412 66.68852699 -25.56787109 60.54541016 C-36.75833711 45.52852673 -36.78438576 29.06833245 -36.38427734 11.10791016 C-35.49289063 10.73037598 -35.49289063 10.73037598 -34.58349609 10.34521484 C-31.84929779 9.185413 -29.1167853 8.02168858 -26.38427734 6.85791016 C-25.44970703 6.46216797 -24.51513672 6.06642578 -23.55224609 5.65869141 C-19.27023197 3.83209797 -15.09637269 1.98030433 -11.00927734 -0.25146484 C-6.48036206 -2.30118944 -4.52052015 -1.69137627 0 0 Z M-17.38427734 11.04541016 C-18.79580078 11.57618164 -18.79580078 11.57618164 -20.23583984 12.11767578 C-22.91681903 13.24762738 -25.11952264 14.27730465 -27.38427734 16.10791016 C-28.57614837 19.17005941 -28.55988716 21.86055057 -28.38427734 25.10791016 C-28.42517404 26.60793135 -28.46679834 28.10793294 -28.50927734 29.60791016 C-28.7886067 32.93072031 -28.7886067 32.93072031 -27.38427734 34.10791016 C-25.8225499 34.19476619 -24.2569839 34.21493235 -22.69287109 34.20556641 C-21.84265381 34.20306885 -20.99243652 34.20057129 -20.11645508 34.19799805 C-19.02921143 34.18889404 -17.94196777 34.17979004 -16.82177734 34.17041016 C-11.65521484 34.13947266 -11.65521484 34.13947266 -6.38427734 34.10791016 C-6.38427734 25.19791016 -6.38427734 16.28791016 -6.38427734 7.10791016 C-9.96392089 7.10791016 -14.12976716 9.70125287 -17.38427734 11.04541016 Z M-4.38427734 36.10791016 C-4.38427734 45.01791016 -4.38427734 53.92791016 -4.38427734 63.10791016 C3.74538115 61.07549553 9.04912952 55.22441329 13.42431641 48.31884766 C15.82292815 43.86765341 16.61572266 41.30732599 16.61572266 36.10791016 C9.68572266 36.10791016 2.75572266 36.10791016 -4.38427734 36.10791016 Z " fill="#61A5F7" transform="translate(48.38427734375,7.89208984375)"/>
<path d="M0 0 C0.33 0 0.66 0 1 0 C1 8.91 1 17.82 1 27 C2.32 26.67 3.64 26.34 5 26 C5 26.66 5 27.32 5 28 C4.34 28 3.68 28 3 28 C3.33 29.65 3.66 31.3 4 33 C5.485 33.495 5.485 33.495 7 34 C2.87951396 36.06024302 0.43757358 36.21815745 -4 35 C-6.73138499 33.7800143 -9.37458214 32.43265188 -12 31 C-9.50935112 30.31292445 -7.62113708 30 -5 30 C-5 30.66 -5 31.32 -5 32 C-3.68 32.33 -2.36 32.66 -1 33 C-1.33 31.68 -1.66 30.36 -2 29 C-1.34 29 -0.68 29 0 29 C0 19.43 0 9.86 0 0 Z " fill="#6DA6EE" transform="translate(43,44)"/>
<path d="M0 0 C0.66 0.33 1.32 0.66 2 1 C1.34 1.66 0.68 2.32 0 3 C-0.29460807 5.40787914 -0.29460807 5.40787914 -0.23046875 8.19921875 C-0.22853516 9.24400391 -0.22660156 10.28878906 -0.22460938 11.36523438 C-0.21236328 12.46158203 -0.20011719 13.55792969 -0.1875 14.6875 C-0.18685547 15.76451172 -0.18621094 16.84152344 -0.18554688 17.95117188 C-0.1554782 23.40028429 0.04025709 28.63311765 1 34 C0.34 34 -0.32 34 -1 34 C-2.66940943 22.9252571 -3.24939926 12.1952557 -3 1 C-2.01 0.67 -1.02 0.34 0 0 Z " fill="#70A4ED" transform="translate(15,18)"/>
<path d="M0 0 C0.99 0 1.98 0 3 0 C2.67 0.99 2.34 1.98 2 3 C-0.6299697 4.23555624 -3.15135883 5.27422595 -5.875 6.25 C-6.60847656 6.53101563 -7.34195312 6.81203125 -8.09765625 7.1015625 C-13.61030844 9.12989719 -13.61030844 9.12989719 -17 8 C-15.85660156 7.50628906 -14.71320312 7.01257813 -13.53515625 6.50390625 C-12.044217 5.85689488 -10.5533345 5.2097527 -9.0625 4.5625 C-8.30775391 4.23701172 -7.55300781 3.91152344 -6.77539062 3.57617188 C-3.12971311 2.19897394 -3.12971311 2.19897394 0 0 Z " fill="#6EA2E5" transform="translate(34,9)"/>
<path d="M0 0 C0.33 0.66 0.66 1.32 1 2 C-1.50123051 6.16871752 -3.49415979 8.98422938 -8 11 C-8.66 10.67 -9.32 10.34 -10 10 C-9.52949219 9.61328125 -9.05898438 9.2265625 -8.57421875 8.828125 C-5.3182388 6.10469664 -2.34546467 3.58718126 0 0 Z " fill="#6AA6E8" transform="translate(59,59)"/>
<path d="M0 0 C0.66 0.33 1.32 0.66 2 1 C1.34 1.66 0.68 2.32 0 3 C-0.40047444 5.32275177 -0.7397104 7.65739357 -1 10 C-2.85776765 6.86501708 -3.20140476 4.62528568 -3 1 C-2.01 0.67 -1.02 0.34 0 0 Z " fill="#79A6E5" transform="translate(15,18)"/>
<path d="M0 0 C0.66 0 1.32 0 2 0 C4.5393228 3.41831915 5.3636198 5.75776898 5 10 C2.35534962 6.8745041 1.15585285 3.91211733 0 0 Z " fill="#74A3EA" transform="translate(15,53)"/>
<path d="M0 0 C2.97 0 5.94 0 9 0 C9 0.33 9 0.66 9 1 C6.69 1.33 4.38 1.66 2 2 C2 2.66 2 3.32 2 4 C1.01 3.67 0.02 3.34 -1 3 C-0.67 2.01 -0.34 1.02 0 0 Z " fill="#65A2E9" transform="translate(21,42)"/>
</svg>
